<svg width="50" height="50" viewBox="0 0 50 50" fill="none" xmlns="http://www.w3.org/2000/svg">
<rect width="50" height="50" rx="25" fill="#275347"/>
<rect x="12.5" y="15.5" width="25" height="17" rx="2.5" fill="#275347" stroke="white"/>
<line x1="12" y1="20.5" x2="38" y2="20.5" stroke="white"/>
<line x1="19" y1="32.5" x2="31" y2="32.5" stroke="#275347"/>
<path d="M24.5404 35.4596C24.7942 35.7135 25.2058 35.7135 25.4596 35.4596L29.5962 31.323C29.85 31.0692 29.85 30.6576 29.5962 30.4038C29.3424 30.15 28.9308 30.15 28.677 30.4038L25 34.0808L21.323 30.4038C21.0692 30.15 20.6576 30.15 20.4038 30.4038C20.15 30.6576 20.15 31.0692 20.4038 31.323L24.5404 35.4596ZM25.65 35V27H24.35V35H25.65Z" fill="white"/>
</svg>
