<svg width="50" height="50" viewBox="0 0 50 50" fill="none" xmlns="http://www.w3.org/2000/svg">
<rect width="50" height="50" rx="25" fill="#D9D9D9"/>
<rect x="12.5" y="15.5" width="25" height="17" rx="2.5" fill="#D9D9D9" stroke="black"/>
<line x1="12" y1="20.5" x2="38" y2="20.5" stroke="black"/>
<line x1="19" y1="32.5" x2="31" y2="32.5" stroke="#D9D9D9"/>
<path d="M25.4596 26.5404C25.2058 26.2865 24.7942 26.2865 24.5404 26.5404L20.4038 30.677C20.15 30.9308 20.15 31.3424 20.4038 31.5962C20.6576 31.85 21.0692 31.85 21.323 31.5962L25 27.9192L28.677 31.5962C28.9308 31.85 29.3424 31.85 29.5962 31.5962C29.85 31.3424 29.85 30.9308 29.5962 30.677L25.4596 26.5404ZM25.65 35V27H24.35V35H25.65Z" fill="black"/>
</svg>
